<?xml version="1.0" encoding="UTF-8" standalone="no"?>
<!-- Created with Inkscape (http://www.inkscape.org/) -->
<svg
   xmlns:dc="http://purl.org/dc/elements/1.1/"
   xmlns:cc="http://web.resource.org/cc/"
   xmlns:rdf="http://www.w3.org/1999/02/22-rdf-syntax-ns#"
   xmlns:svg="http://www.w3.org/2000/svg"
   xmlns="http://www.w3.org/2000/svg"
   xmlns:xlink="http://www.w3.org/1999/xlink"
   xmlns:sodipodi="http://inkscape.sourceforge.net/DTD/sodipodi-0.dtd"
   xmlns:inkscape="http://www.inkscape.org/namespaces/inkscape"
   width="612pt"
   height="792pt"
   id="svg1425"
   sodipodi:version="0.32"
   inkscape:version="0.43+devel"
   sodipodi:docbase="C:\Documents and Settings\serban1\Desktop"
   sodipodi:docname="doc_logo.svg">
  <defs
     id="defs1427" />
  <sodipodi:namedview
     inkscape:document-units="in"
     pagecolor="#ffffff"
     bordercolor="#666666"
     borderopacity="1.0"
     inkscape:pageopacity="0.0"
     inkscape:pageshadow="2"
     inkscape:zoom="0.77373737"
     inkscape:cx="382.5"
     inkscape:cy="495"
     inkscape:current-layer="layer1"
     id="namedview1429"
     inkscape:window-width="1242"
     inkscape:window-height="931"
     inkscape:window-x="118"
     inkscape:window-y="161" />
  <metadata
     id="metadata1431">
    <rdf:RDF>
      <cc:Work
         rdf:about="">
        <dc:format>image/svg+xml</dc:format>
        <dc:type
           rdf:resource="http://purl.org/dc/dcmitype/StillImage" />
      </cc:Work>
    </rdf:RDF>
  </metadata>
  <g
     inkscape:label="Layer 1"
     inkscape:groupmode="layer"
     id="layer1">
    <g
       id="g2606"
       inkscape:r_cx="true"
       inkscape:r_cy="true"
       transform="translate(170.6005,315.2639)">
      <path
         inkscape:r_cy="true"
         inkscape:r_cx="true"
         style="font-size:144px;font-style:normal;font-variant:normal;font-weight:normal;font-stretch:normal;text-align:start;line-height:125%;writing-mode:lr-tb;text-anchor:start;fill:#dad9c9;fill-opacity:1;stroke:none;stroke-width:1px;stroke-linecap:butt;stroke-linejoin:miter;stroke-opacity:1;font-family:URW Gothic L"
         d="M 133.17791,189.46491 C 133.29311,201.67609 141.35713,209.50971 153.45311,209.50971 C 164.74271,209.50971 172.69151,201.44569 172.69151,189.92571 C 172.69151,182.20731 169.12031,176.90811 161.74751,173.79771 C 152.18592,169.88091 151.72511,169.65051 149.88191,168.72891 C 145.96511,166.77051 144.12191,164.1209 144.12191,160.43451 C 144.12191,155.36572 148.15392,151.33371 153.22271,151.33371 C 158.75231,151.33371 161.97792,154.55932 162.43872,160.54971 L 171.07871,160.54971 C 170.73312,150.41212 163.47551,143.50011 153.33791,143.50011 C 143.08512,143.50011 135.48191,150.98812 135.48191,161.24091 C 135.48191,165.7337 137.09471,169.65051 140.20511,172.53051 C 142.85471,174.94971 142.96992,174.94971 151.84031,178.63611 C 155.64191,180.13371 158.40671,181.51611 160.01951,182.55291 C 162.55391,184.28091 164.05152,187.27611 164.05152,190.73211 C 164.05152,197.0681 159.55871,201.67611 153.45311,201.67611 C 146.42592,201.67611 142.04831,197.1833 141.58751,189.46491 L 133.17791,189.46491"
         id="path2131"
         inkscape:export-filename="./path5657.png"
         inkscape:export-xdpi="90.000000"
         inkscape:export-ydpi="90.000000" />
      <path
         inkscape:r_cy="true"
         inkscape:r_cx="true"
         style="font-size:144px;font-style:normal;font-variant:normal;font-weight:normal;font-stretch:normal;text-align:start;line-height:125%;writing-mode:lr-tb;text-anchor:start;fill:#dad9c9;fill-opacity:1;stroke:none;stroke-width:1px;stroke-linecap:butt;stroke-linejoin:miter;stroke-opacity:1;font-family:URW Gothic L"
         d="M 238.66332,144.99771 L 230.13851,144.99771 L 230.13851,177.36891 C 230.13851,185.0873 228.98652,189.92571 226.33691,193.84251 C 222.76572,198.7961 217.12091,201.67611 210.55451,201.67611 C 203.52732,201.67611 197.53691,198.7961 194.65691,193.72731 C 192.69851,190.50171 191.66171,185.4329 191.66171,178.98171 L 191.66171,144.99771 L 183.13691,144.99771 L 183.13691,178.98171 C 183.13691,188.3129 184.74971,194.87931 188.09051,199.48731 C 192.81371,206.0537 200.41692,209.50971 209.86332,209.50971 C 219.65531,209.50971 225.87612,206.0537 230.13851,198.22011 L 230.13851,208.01211 L 238.66332,208.01211 L 238.66332,144.99771"
         id="path2133"
         inkscape:export-filename="./path5657.png"
         inkscape:export-xdpi="90.000000"
         inkscape:export-ydpi="90.000000" />
      <path
         inkscape:r_cy="true"
         inkscape:r_cx="true"
         style="font-size:144px;font-style:normal;font-variant:normal;font-weight:normal;font-stretch:normal;text-align:start;line-height:125%;writing-mode:lr-tb;text-anchor:start;fill:#dad9c9;fill-opacity:1;stroke:none;stroke-width:1px;stroke-linecap:butt;stroke-linejoin:miter;stroke-opacity:1;font-family:URW Gothic L"
         d="M 253.11191,208.01211 L 261.63671,208.01211 L 261.63671,173.33691 C 261.63671,166.30971 262.55831,162.6233 264.97751,159.05211 C 268.31831,154.21372 274.19352,151.33371 280.87511,151.33371 C 287.09591,151.33371 292.74071,153.86811 296.19671,158.13051 C 299.19191,162.0473 300.34391,166.65531 300.34391,174.94971 L 300.34391,208.01211 L 308.86871,208.01211 L 308.86871,174.94971 C 308.86871,164.35131 307.37111,158.70651 303.33911,153.29211 C 298.38552,147.07132 290.78231,143.50011 281.91191,143.50011 C 273.61752,143.50011 266.93591,146.72572 261.63671,153.17691 L 261.63671,144.99771 L 253.11191,144.99771 L 253.11191,208.01211"
         id="path2135"
         inkscape:export-filename="./path5657.png"
         inkscape:export-xdpi="90.000000"
         inkscape:export-ydpi="90.000000" />
      <path
         inkscape:r_cy="true"
         inkscape:r_cx="true"
         style="font-size:144px;font-style:normal;font-variant:normal;font-weight:normal;font-stretch:normal;text-align:start;line-height:125%;writing-mode:lr-tb;text-anchor:start;fill:#ff0000;fill-opacity:1;stroke:none;stroke-width:1px;stroke-linecap:butt;stroke-linejoin:miter;stroke-opacity:1;font-family:URW Gothic L"
         d="M 350.55159,150.66811 C 364.71381,150.66811 376.30111,161.84253 376.30111,175.66651 C 376.30111,189.49049 365.06494,201.01051 351.37089,201.01051 C 336.74049,201.01051 325.50431,189.95129 325.50431,175.55131 C 325.50431,161.72733 336.62344,150.66811 350.55159,150.66811"
         id="path2137"
         inkscape:export-filename="./path5657.png"
         inkscape:export-xdpi="90.000000"
         inkscape:export-ydpi="90.000000" />
      <path
         inkscape:r_cy="true"
         inkscape:r_cx="true"
         style="font-size:144px;font-style:normal;font-variant:normal;font-weight:normal;font-stretch:normal;text-align:start;line-height:125%;writing-mode:lr-tb;text-anchor:start;fill:#dad9c9;fill-opacity:1;stroke:none;stroke-width:1px;stroke-linecap:butt;stroke-linejoin:miter;stroke-opacity:1;font-family:URW Gothic L"
         d="M 402.28691,208.01211 L 410.81171,208.01211 L 410.81171,144.99771 L 402.28691,144.99771 L 402.28691,208.01211"
         id="path2139"
         inkscape:export-filename="./path5657.png"
         inkscape:export-xdpi="90.000000"
         inkscape:export-ydpi="90.000000" />
      <path
         inkscape:r_cy="true"
         inkscape:r_cx="true"
         style="font-size:144px;font-style:normal;font-variant:normal;font-weight:normal;font-stretch:normal;text-align:start;line-height:125%;writing-mode:lr-tb;text-anchor:start;fill:#ff0000;fill-opacity:1;stroke:none;stroke-width:1px;stroke-linecap:butt;stroke-linejoin:miter;stroke-opacity:1;font-family:URW Gothic L"
         d="M 402.28691,137.39451 L 410.81171,137.39451 L 410.81171,122.87931 L 402.28691,122.87931 L 402.28691,137.39451"
         id="path2141"
         inkscape:export-filename="./path5657.png"
         inkscape:export-xdpi="90.000000"
         inkscape:export-ydpi="90.000000" />
      <g
         inkscape:r_cy="true"
         inkscape:r_cx="true"
         transform="translate(169.6633,568.268)"
         inkscape:export-ydpi="90.000000"
         inkscape:export-xdpi="90.000000"
         inkscape:export-filename="./path5657.png"
         id="g2157">
        <path
           inkscape:r_cy="true"
           inkscape:r_cx="true"
           inkscape:export-ydpi="90.000000"
           inkscape:export-xdpi="90.000000"
           inkscape:export-filename="./path5657.png"
           id="path2143"
           d="M 319.74,-423.27035 L 311.21519,-423.27035 L 311.21519,-412.09595 C 304.9944,-420.85114 297.27599,-424.76795 286.332,-424.76795 C 267.43921,-424.76795 253.1544,-410.48313 253.1544,-391.59035 C 253.1544,-372.81277 267.55441,-358.75835 286.908,-358.75835 C 297.62159,-358.75835 304.5336,-362.32956 311.21519,-371.31515 L 311.21519,-360.25595 L 319.74,-360.25595 L 319.74,-423.27035"
           style="font-size:144px;font-style:normal;font-variant:normal;font-weight:normal;font-stretch:normal;text-align:start;line-height:125%;writing-mode:lr-tb;text-anchor:start;fill:#dad9c9;fill-opacity:1;stroke:none;stroke-width:1px;stroke-linecap:butt;stroke-linejoin:miter;stroke-opacity:1;font-family:URW Gothic L" />
        <path
           inkscape:r_cy="true"
           inkscape:r_cx="true"
           inkscape:export-ydpi="90.000000"
           inkscape:export-xdpi="90.000000"
           inkscape:export-filename="./path5657.png"
           id="path2145"
           d="M 286.5624,-416.93435 C 300.38638,-416.93435 311.21519,-406.10553 311.21519,-392.05115 C 311.21519,-377.76637 300.61678,-366.59195 287.02319,-366.59195 C 272.73841,-366.59195 261.7944,-377.76637 261.7944,-392.16635 C 261.7944,-405.87514 272.85361,-416.93435 286.5624,-416.93435"
           style="font-size:144px;font-style:normal;font-variant:normal;font-weight:normal;font-stretch:normal;text-align:start;line-height:125%;writing-mode:lr-tb;text-anchor:start;fill:#ff0000;fill-opacity:0.99397589;stroke:none;stroke-width:1px;stroke-linecap:butt;stroke-linejoin:miter;stroke-opacity:1;font-family:URW Gothic L" />
      </g>
      <path
         inkscape:r_cy="true"
         inkscape:r_cx="true"
         style="font-size:144px;font-style:normal;font-variant:normal;font-weight:normal;font-stretch:normal;text-align:start;line-height:125%;writing-mode:lr-tb;text-anchor:start;fill:#dad9c9;fill-opacity:1;stroke:none;stroke-width:1px;stroke-linecap:butt;stroke-linejoin:miter;stroke-opacity:1;font-family:URW Gothic L"
         d="M 503.98691,208.01211 L 512.51171,208.01211 L 512.51171,122.87931 L 503.98691,122.87931 L 503.98691,208.01211"
         id="path2147"
         inkscape:export-filename="./path5657.png"
         inkscape:export-xdpi="90.000000"
         inkscape:export-ydpi="90.000000" />
      <path
         inkscape:r_cy="true"
         inkscape:r_cx="true"
         style="font-size:144px;font-style:normal;font-variant:normal;font-weight:normal;font-stretch:normal;text-align:start;line-height:125%;writing-mode:lr-tb;text-anchor:start;fill:#dad9c9;fill-opacity:1;stroke:none;stroke-width:1px;stroke-linecap:butt;stroke-linejoin:miter;stroke-opacity:1;font-family:URW Gothic L"
         d="M 521.75292,189.46491 C 521.86811,201.67609 529.93213,209.50971 542.02812,209.50971 C 553.31771,209.50971 561.26652,201.44569 561.26652,189.92571 C 561.26652,182.20731 557.69531,176.90811 550.32251,173.79771 C 540.76092,169.88091 540.30012,169.65051 538.45691,168.72891 C 534.54012,166.77051 532.69691,164.1209 532.69691,160.43451 C 532.69691,155.36572 536.72892,151.33371 541.79772,151.33371 C 547.32731,151.33371 550.55291,154.55932 551.01372,160.54971 L 559.65371,160.54971 C 559.30811,150.41212 552.05051,143.50011 541.91292,143.50011 C 531.66012,143.50011 524.05692,150.98812 524.05692,161.24091 C 524.05692,165.7337 525.66972,169.65051 528.78012,172.53051 C 531.42971,174.94971 531.54492,174.94971 540.41531,178.63611 C 544.21691,180.13371 546.98172,181.51611 548.59452,182.55291 C 551.12892,184.28091 552.62651,187.27611 552.62651,190.73211 C 552.62651,197.0681 548.13371,201.67611 542.02812,201.67611 C 535.00092,201.67611 530.62331,197.1833 530.16251,189.46491 L 521.75292,189.46491"
         id="path2149"
         inkscape:export-filename="./path5657.png"
         inkscape:export-xdpi="90.000000"
         inkscape:export-ydpi="90.000000" />
      <path
         inkscape:r_cy="true"
         inkscape:r_cx="true"
         sodipodi:nodetypes="cccssscccc"
         inkscape:export-ydpi="90.000000"
         inkscape:export-xdpi="90.000000"
         inkscape:export-filename="./path5657.png"
         id="path2163"
         d="M 384.24892,98.268064 L 375.66332,98.268064 L 375.72411,155.93046 C 369.50332,147.17527 361.78491,143.25846 350.84092,143.25846 C 331.94813,143.25846 317.66332,157.54328 317.66332,176.43606 C 317.66332,195.21364 332.06333,209.26806 351.41692,209.26806 C 362.13051,209.26806 369.04252,205.69685 375.72411,196.71126 L 375.72411,207.77046 L 384.24892,207.77046 L 384.24892,98.268064"
         style="font-size:144px;font-style:normal;font-variant:normal;font-weight:normal;font-stretch:normal;text-align:start;line-height:125%;writing-mode:lr-tb;text-anchor:start;fill:#dad9c9;fill-opacity:1;stroke:none;stroke-width:1px;stroke-linecap:butt;stroke-linejoin:miter;stroke-opacity:1;font-family:URW Gothic L" />
      <path
         inkscape:r_cy="true"
         inkscape:r_cx="true"
         inkscape:export-ydpi="90.000000"
         inkscape:export-xdpi="90.000000"
         inkscape:export-filename="./path5657.png"
         id="path2165"
         d="M 351.07132,151.09206 C 364.8953,151.09206 375.72411,161.92088 375.72411,175.97526 C 375.72411,190.26004 365.1257,201.43446 351.53211,201.43446 C 337.24733,201.43446 326.30332,190.26004 326.30332,175.86006 C 326.30332,162.15127 337.36253,151.09206 351.07132,151.09206"
         style="font-size:144px;font-style:normal;font-variant:normal;font-weight:normal;font-stretch:normal;text-align:start;line-height:125%;writing-mode:lr-tb;text-anchor:start;fill:#ff0000;fill-opacity:0.99397589;stroke:none;stroke-width:1px;stroke-linecap:butt;stroke-linejoin:miter;stroke-opacity:1;font-family:URW Gothic L" />
    </g>
    <g
       id="g10906">
      <path
         inkscape:r_cy="true"
         inkscape:r_cx="true"
         id="path1306"
         d="M 170.71236,318.67615 C 170.8775,318.67598 171.0443,318.699 171.20952,318.69991 L 246.51841,318.69991 L 246.51841,394.60492 L 246.51841,394.72371 C 246.526,404.56071 244.63554,414.55034 240.59976,424.18293 C 224.3918,462.86799 179.95335,481.07283 141.40321,464.80815 C 102.85305,448.54347 84.711693,403.94953 100.91965,365.26449 L 101.03803,364.95564 C 113.28608,336.07604 141.27028,318.70777 170.71236,318.67615 z "
         style="fill:#e1e1d4;fill-opacity:1;stroke:none;stroke-opacity:1" />
      <path
         inkscape:r_cy="true"
         inkscape:r_cx="true"
         transform="matrix(0.894699,0,0,0.89039,-149.4221,-75.79131)"
         sodipodi:open="true"
         sodipodi:end="12.163999"
         sodipodi:start="5.8851849"
         d="M 424.69039,500.33435 A 72.5,72.5 0 1 1 424.56692,500.04247"
         sodipodi:ry="72.5"
         sodipodi:rx="72.5"
         sodipodi:cy="528.43359"
         sodipodi:cx="357.85715"
         id="path1313"
         style="fill:#dad9c9;fill-opacity:1;stroke:none;stroke-opacity:1"
         sodipodi:type="arc" />
      <path
         inkscape:r_cy="true"
         inkscape:r_cx="true"
         transform="matrix(0.634899,-0.142412,0.141915,0.63712,30.93392,94.25629)"
         d="M 187.14286,560.93361 L 115.00397,516.43147 L 72.699103,589.88049 L 92.73101,507.52041 L 9.8039153,489.98309 L 94.323209,483.5839 L 85.376311,399.29621 L 117.5802,477.70138 L 194.97781,443.14605 L 130.36161,498.00229 L 187.14286,560.93361 z "
         inkscape:randomized="0"
         inkscape:rounded="0"
         inkscape:flatsided="false"
         sodipodi:arg2="1.3230568"
         sodipodi:arg1="0.69473828"
         sodipodi:r2="20.406609"
         sodipodi:r1="100.4175"
         sodipodi:cy="496.64789"
         sodipodi:cx="110"
         sodipodi:sides="5"
         id="path2050"
         style="fill:#e1e1d4;fill-opacity:1;stroke:none;stroke-opacity:1"
         sodipodi:type="star" />
    </g>
    <path
       id="path9947"
       style="fill:none;fill-opacity:0.80337076;stroke:none;stroke-width:0.42059112;stroke-miterlimit:4;stroke-opacity:1"
       d="M 89.430228,410.64755 C 79.250189,367.73198 105.81816,324.63989 148.73374,314.45986 C 155.17358,312.93228 160.78145,312.28421 167.39997,312.30278 M 166.03245,312.17416 L 245.68533,312.43532"
       sodipodi:nodetypes="csccc" />
    <text
       xml:space="preserve"
       style="font-size:32.3555336px;font-style:normal;font-variant:normal;font-weight:bold;font-stretch:normal;text-align:start;line-height:100%;writing-mode:lr-tb;text-anchor:start;fill:#cdccb9;fill-opacity:1;stroke:none;stroke-width:1px;stroke-linecap:butt;stroke-linejoin:miter;stroke-opacity:1;font-family:trebuchet ms;opacity:1"
       id="text9961"
       inkscape:r_cx="true"
       inkscape:r_cy="true"
       sodipodi:linespacing="100%"><textPath
         xlink:href="#path9947"
         id="textPath9965"
         inkscape:r_cx="true"
         inkscape:r_cy="true"><tspan
   inkscape:r_cy="true"
   inkscape:r_cx="true"
   id="tspan9963"
   style="font-size:32.3555336px;font-style:normal;font-variant:normal;font-weight:bold;font-stretch:normal;text-align:start;line-height:100%;letter-spacing:14.88425541;writing-mode:lr-tb;text-anchor:start;fill:#cdccb9;fill-opacity:1;font-family:trebuchet ms">sundials</tspan></textPath></text>
    <g
       id="g10894"
       transform="translate(54.28198,90.46997)"
       inkscape:r_cx="true"
       inkscape:r_cy="true">
      <path
         inkscape:export-ydpi="90.000000"
         inkscape:export-xdpi="90.000000"
         inkscape:export-filename="./path5657.png"
         id="path10850"
         d="M 253.37371,569.35021 C 253.48891,581.56139 261.55293,589.39501 273.64891,589.39501 C 284.93851,589.39501 292.88731,581.33099 292.88731,569.81101 C 292.88731,562.09261 289.31611,556.79341 281.94331,553.68301 C 272.38172,549.76621 271.92091,549.53581 270.07771,548.61421 C 266.16091,546.65581 264.31771,544.0062 264.31771,540.31981 C 264.31771,535.25102 268.34972,531.21901 273.41851,531.21901 C 278.94811,531.21901 282.17372,534.44462 282.63452,540.43501 L 291.27451,540.43501 C 290.92892,530.29742 283.67131,523.38541 273.53371,523.38541 C 263.28092,523.38541 255.67771,530.87342 255.67771,541.12621 C 255.67771,545.619 257.29051,549.53581 260.40091,552.41581 C 263.05051,554.83501 263.16572,554.83501 272.03611,558.52141 C 275.83771,560.01901 278.60251,561.40141 280.21531,562.43821 C 282.74971,564.16621 284.24732,567.16141 284.24732,570.61741 C 284.24732,576.9534 279.75451,581.56141 273.64891,581.56141 C 266.62172,581.56141 262.24411,577.0686 261.78331,569.35021 L 253.37371,569.35021"
         style="font-size:144px;font-style:normal;font-variant:normal;font-weight:normal;font-stretch:normal;text-align:start;line-height:125%;writing-mode:lr-tb;text-anchor:start;fill:#dad9c9;fill-opacity:1;stroke:none;stroke-width:1px;stroke-linecap:butt;stroke-linejoin:miter;stroke-opacity:1;font-family:URW Gothic L"
         inkscape:r_cx="true"
         inkscape:r_cy="true" />
      <path
         inkscape:export-ydpi="90.000000"
         inkscape:export-xdpi="90.000000"
         inkscape:export-filename="./path5657.png"
         id="path10852"
         d="M 358.85912,524.88301 L 350.33431,524.88301 L 350.33431,557.25421 C 350.33431,564.9726 349.18232,569.81101 346.53271,573.72781 C 342.96152,578.6814 337.31671,581.56141 330.75031,581.56141 C 323.72312,581.56141 317.73271,578.6814 314.85271,573.61261 C 312.89431,570.38701 311.85751,565.3182 311.85751,558.86701 L 311.85751,524.88301 L 303.33271,524.88301 L 303.33271,558.86701 C 303.33271,568.1982 304.94551,574.76461 308.28631,579.37261 C 313.00951,585.939 320.61272,589.39501 330.05912,589.39501 C 339.85111,589.39501 346.07192,585.939 350.33431,578.10541 L 350.33431,587.89741 L 358.85912,587.89741 L 358.85912,524.88301"
         style="font-size:144px;font-style:normal;font-variant:normal;font-weight:normal;font-stretch:normal;text-align:start;line-height:125%;writing-mode:lr-tb;text-anchor:start;fill:#dad9c9;fill-opacity:1;stroke:none;stroke-width:1px;stroke-linecap:butt;stroke-linejoin:miter;stroke-opacity:1;font-family:URW Gothic L"
         inkscape:r_cx="true"
         inkscape:r_cy="true" />
      <path
         inkscape:export-ydpi="90.000000"
         inkscape:export-xdpi="90.000000"
         inkscape:export-filename="./path5657.png"
         id="path10854"
         d="M 373.30771,587.89741 L 381.83251,587.89741 L 381.83251,553.22221 C 381.83251,546.19501 382.75411,542.5086 385.17331,538.93741 C 388.51411,534.09902 394.38932,531.21901 401.07091,531.21901 C 407.29171,531.21901 412.93651,533.75341 416.39251,538.01581 C 419.38771,541.9326 420.53971,546.54061 420.53971,554.83501 L 420.53971,587.89741 L 429.06451,587.89741 L 429.06451,554.83501 C 429.06451,544.23661 427.56691,538.59181 423.53491,533.17741 C 418.58132,526.95662 410.97811,523.38541 402.10771,523.38541 C 393.81332,523.38541 387.13171,526.61102 381.83251,533.06221 L 381.83251,524.88301 L 373.30771,524.88301 L 373.30771,587.89741"
         style="font-size:144px;font-style:normal;font-variant:normal;font-weight:normal;font-stretch:normal;text-align:start;line-height:125%;writing-mode:lr-tb;text-anchor:start;fill:#dad9c9;fill-opacity:1;stroke:none;stroke-width:1px;stroke-linecap:butt;stroke-linejoin:miter;stroke-opacity:1;font-family:URW Gothic L"
         inkscape:r_cx="true"
         inkscape:r_cy="true" />
      <path
         inkscape:export-ydpi="90.000000"
         inkscape:export-xdpi="90.000000"
         inkscape:export-filename="./path5657.png"
         id="path10856"
         d="M 470.74739,530.55341 C 484.90961,530.55341 496.49691,541.72783 496.49691,555.55181 C 496.49691,569.37579 485.26074,580.89581 471.56669,580.89581 C 456.93629,580.89581 445.70011,569.83659 445.70011,555.43661 C 445.70011,541.61263 456.81924,530.55341 470.74739,530.55341"
         style="font-size:144px;font-style:normal;font-variant:normal;font-weight:normal;font-stretch:normal;text-align:start;line-height:125%;writing-mode:lr-tb;text-anchor:start;fill:#ff0000;fill-opacity:1;stroke:none;stroke-width:1px;stroke-linecap:butt;stroke-linejoin:miter;stroke-opacity:1;font-family:URW Gothic L"
         inkscape:r_cx="true"
         inkscape:r_cy="true" />
      <path
         inkscape:export-ydpi="90.000000"
         inkscape:export-xdpi="90.000000"
         inkscape:export-filename="./path5657.png"
         id="path10858"
         d="M 522.48271,587.89741 L 531.00751,587.89741 L 531.00751,524.88301 L 522.48271,524.88301 L 522.48271,587.89741"
         style="font-size:144px;font-style:normal;font-variant:normal;font-weight:normal;font-stretch:normal;text-align:start;line-height:125%;writing-mode:lr-tb;text-anchor:start;fill:#dad9c9;fill-opacity:1;stroke:none;stroke-width:1px;stroke-linecap:butt;stroke-linejoin:miter;stroke-opacity:1;font-family:URW Gothic L"
         inkscape:r_cx="true"
         inkscape:r_cy="true" />
      <path
         inkscape:export-ydpi="90.000000"
         inkscape:export-xdpi="90.000000"
         inkscape:export-filename="./path5657.png"
         id="path10860"
         d="M 522.48271,517.27981 L 531.00751,517.27981 L 531.00751,502.76461 L 522.48271,502.76461 L 522.48271,517.27981"
         style="font-size:144px;font-style:normal;font-variant:normal;font-weight:normal;font-stretch:normal;text-align:start;line-height:125%;writing-mode:lr-tb;text-anchor:start;fill:#dad9c9;fill-opacity:1;stroke:none;stroke-width:1px;stroke-linecap:butt;stroke-linejoin:miter;stroke-opacity:1;font-family:URW Gothic L"
         inkscape:r_cx="true"
         inkscape:r_cy="true" />
      <path
         inkscape:r_cy="true"
         inkscape:r_cx="true"
         inkscape:export-ydpi="90.000000"
         inkscape:export-xdpi="90.000000"
         inkscape:export-filename="./path5657.png"
         id="path10864"
         d="M 609.5991,524.88295 L 601.07429,524.88295 L 601.07429,536.05735 C 594.8535,527.30216 587.13509,523.38535 576.1911,523.38535 C 557.29831,523.38535 543.0135,537.67017 543.0135,556.56295 C 543.0135,575.34053 557.41351,589.39495 576.7671,589.39495 C 587.48069,589.39495 594.3927,585.82374 601.07429,576.83815 L 601.07429,587.89735 L 609.5991,587.89735 L 609.5991,524.88295"
         style="font-size:144px;font-style:normal;font-variant:normal;font-weight:normal;font-stretch:normal;text-align:start;line-height:125%;writing-mode:lr-tb;text-anchor:start;fill:#dad9c9;fill-opacity:1;stroke:none;stroke-width:1px;stroke-linecap:butt;stroke-linejoin:miter;stroke-opacity:1;font-family:URW Gothic L" />
      <path
         inkscape:export-ydpi="90.000000"
         inkscape:export-xdpi="90.000000"
         inkscape:export-filename="./path5657.png"
         id="path10868"
         d="M 624.18271,587.89741 L 632.70751,587.89741 L 632.70751,502.76461 L 624.18271,502.76461 L 624.18271,587.89741"
         style="font-size:144px;font-style:normal;font-variant:normal;font-weight:normal;font-stretch:normal;text-align:start;line-height:125%;writing-mode:lr-tb;text-anchor:start;fill:#dad9c9;fill-opacity:1;stroke:none;stroke-width:1px;stroke-linecap:butt;stroke-linejoin:miter;stroke-opacity:1;font-family:URW Gothic L"
         inkscape:r_cx="true"
         inkscape:r_cy="true" />
      <path
         inkscape:export-ydpi="90.000000"
         inkscape:export-xdpi="90.000000"
         inkscape:export-filename="./path5657.png"
         id="path10870"
         d="M 641.94872,569.35021 C 642.06391,581.56139 650.12793,589.39501 662.22392,589.39501 C 673.51351,589.39501 681.46232,581.33099 681.46232,569.81101 C 681.46232,562.09261 677.89111,556.79341 670.51831,553.68301 C 660.95672,549.76621 660.49592,549.53581 658.65271,548.61421 C 654.73592,546.65581 652.89271,544.0062 652.89271,540.31981 C 652.89271,535.25102 656.92472,531.21901 661.99352,531.21901 C 667.52311,531.21901 670.74871,534.44462 671.20952,540.43501 L 679.84951,540.43501 C 679.50391,530.29742 672.24631,523.38541 662.10872,523.38541 C 651.85592,523.38541 644.25272,530.87342 644.25272,541.12621 C 644.25272,545.619 645.86552,549.53581 648.97592,552.41581 C 651.62551,554.83501 651.74072,554.83501 660.61111,558.52141 C 664.41271,560.01901 667.17752,561.40141 668.79032,562.43821 C 671.32472,564.16621 672.82231,567.16141 672.82231,570.61741 C 672.82231,576.9534 668.32951,581.56141 662.22392,581.56141 C 655.19672,581.56141 650.81911,577.0686 650.35831,569.35021 L 641.94872,569.35021"
         style="font-size:144px;font-style:normal;font-variant:normal;font-weight:normal;font-stretch:normal;text-align:start;line-height:125%;writing-mode:lr-tb;text-anchor:start;fill:#dad9c9;fill-opacity:1;stroke:none;stroke-width:1px;stroke-linecap:butt;stroke-linejoin:miter;stroke-opacity:1;font-family:URW Gothic L"
         inkscape:r_cx="true"
         inkscape:r_cy="true" />
      <path
         style="font-size:144px;font-style:normal;font-variant:normal;font-weight:normal;font-stretch:normal;text-align:start;line-height:125%;writing-mode:lr-tb;text-anchor:start;fill:#dad9c9;fill-opacity:1;stroke:none;stroke-width:1px;stroke-linecap:butt;stroke-linejoin:miter;stroke-opacity:1;font-family:URW Gothic L"
         d="M 504.44472,478.15336 L 495.85912,478.15336 L 495.91991,535.81576 C 489.69912,527.06057 481.98071,523.14376 471.03672,523.14376 C 452.14393,523.14376 437.85912,537.42858 437.85912,556.32136 C 437.85912,575.09894 452.25913,589.15336 471.61272,589.15336 C 482.32631,589.15336 489.23832,585.58215 495.91991,576.59656 L 495.91991,587.65576 L 504.44472,587.65576 L 504.44472,478.15336"
         id="path10872"
         inkscape:export-filename="./path5657.png"
         inkscape:export-xdpi="90.000000"
         inkscape:export-ydpi="90.000000"
         sodipodi:nodetypes="cccssscccc"
         inkscape:r_cx="true"
         inkscape:r_cy="true" />
    </g>
    <g
       id="g10911"
       transform="translate(301.1358,392.8982)"
       inkscape:r_cx="true"
       inkscape:r_cy="true">
      <path
         style="fill:#e1e1d4;fill-opacity:1;stroke:none;stroke-opacity:1"
         d="M 170.71236,318.67615 C 170.8775,318.67598 171.0443,318.699 171.20952,318.69991 L 246.51841,318.69991 L 246.51841,394.60492 L 246.51841,394.72371 C 246.526,404.56071 244.63554,414.55034 240.59976,424.18293 C 224.3918,462.86799 179.95335,481.07283 141.40321,464.80815 C 102.85305,448.54347 84.711693,403.94953 100.91965,365.26449 L 101.03803,364.95564 C 113.28608,336.07604 141.27028,318.70777 170.71236,318.67615 z "
         id="path10913"
         inkscape:r_cx="true"
         inkscape:r_cy="true" />
      <path
         sodipodi:type="arc"
         style="fill:#dad9c9;fill-opacity:1;stroke:none;stroke-opacity:1"
         id="path10915"
         sodipodi:cx="357.85715"
         sodipodi:cy="528.43359"
         sodipodi:rx="72.5"
         sodipodi:ry="72.5"
         d="M 424.69039,500.33435 A 72.5,72.5 0 1 1 424.56692,500.04247"
         sodipodi:start="5.8851849"
         sodipodi:end="12.163999"
         sodipodi:open="true"
         transform="matrix(0.894699,0,0,0.89039,-149.4221,-75.79131)"
         inkscape:r_cx="true"
         inkscape:r_cy="true" />
      <path
         sodipodi:type="star"
         style="fill:#e1e1d4;fill-opacity:1;stroke:none;stroke-opacity:1"
         id="path10917"
         sodipodi:sides="5"
         sodipodi:cx="110"
         sodipodi:cy="496.64789"
         sodipodi:r1="100.4175"
         sodipodi:r2="20.406609"
         sodipodi:arg1="0.69473828"
         sodipodi:arg2="1.3230568"
         inkscape:flatsided="false"
         inkscape:rounded="0"
         inkscape:randomized="0"
         d="M 187.14286,560.93361 L 115.00397,516.43147 L 72.699103,589.88049 L 92.73101,507.52041 L 9.8039153,489.98309 L 94.323209,483.5839 L 85.376311,399.29621 L 117.5802,477.70138 L 194.97781,443.14605 L 130.36161,498.00229 L 187.14286,560.93361 z "
         transform="matrix(0.634899,-0.142412,0.141915,0.63712,30.93392,94.25629)"
         inkscape:r_cx="true"
         inkscape:r_cy="true" />
    </g>
  </g>
</svg>
